<svg width="263" height="32" viewBox="0 0 263 32" fill="none" xmlns="http://www.w3.org/2000/svg">
<path d="M1.70666 2.44C1.70666 1.964 1.64132 1.614 1.51066 1.39C1.37999 1.15667 1.11866 1.04 0.726656 1.04H0.446656V0.76H4.08666C5.10399 0.76 5.98599 0.928 6.73266 1.264C7.48866 1.6 7.86666 2.24867 7.86666 3.21C7.86666 3.64867 7.71732 4.04533 7.41866 4.4C7.11999 4.75467 6.66266 5.03467 6.04666 5.24C6.90532 5.38 7.50266 5.63667 7.83866 6.01C8.18399 6.374 8.35666 6.864 8.35666 7.48C8.35666 8.42267 7.98332 9.08067 7.23666 9.454C6.49932 9.818 5.58932 10 4.50666 10H1.70666V2.44ZM4.29666 5.03C4.67932 5.03 5.03866 4.96 5.37466 4.82C5.71999 4.67067 5.99999 4.456 6.21466 4.176C6.42932 3.88667 6.53666 3.54133 6.53666 3.14C6.53666 2.72 6.41066 2.37 6.15866 2.09C5.90666 1.80067 5.58466 1.59067 5.19266 1.46C4.80999 1.32 4.41799 1.25 4.01666 1.25C3.68999 1.25 3.33999 1.29667 2.96666 1.39V5.03H4.29666ZM4.29666 9.51C5.14599 9.51 5.79932 9.342 6.25666 9.006C6.72332 8.67 6.95666 8.18467 6.95666 7.55C6.95666 6.91533 6.72799 6.43 6.27066 6.094C5.82266 5.758 5.16466 5.59 4.29666 5.59H2.96666V9.314C3.41466 9.44467 3.85799 9.51 4.29666 9.51ZM10.4016 12.38C10.859 12.38 11.2323 12.2727 11.5216 12.058C11.8203 11.8527 12.077 11.47 12.2916 10.91L12.5716 10.14L10.3316 4.68C10.0703 4.008 9.55697 3.63467 8.79164 3.56V3.28H9.98164C10.7936 3.28 11.3536 3.65333 11.6616 4.4L13.2576 8.278L15.0216 3.42H15.7216L12.9916 10.91C12.721 11.6473 12.4223 12.1467 12.0956 12.408C11.769 12.6693 11.3443 12.8 10.8216 12.8H10.4016V12.38ZM23.333 10.14C22.661 10.14 22.0917 9.99067 21.625 9.692C21.1677 9.384 20.8224 8.97333 20.589 8.46C20.365 7.93733 20.253 7.354 20.253 6.71C20.253 6.066 20.365 5.48733 20.589 4.974C20.8224 4.45133 21.1677 4.04067 21.625 3.742C22.0917 3.434 22.661 3.28 23.333 3.28C24.3597 3.28 25.0364 3.44333 25.363 3.77C25.5217 3.92867 25.6197 4.12467 25.657 4.358C25.6944 4.582 25.713 4.99267 25.713 5.59H25.433C25.3957 5.01133 25.2137 4.57733 24.887 4.288C24.5604 3.98933 24.1357 3.84 23.613 3.84C22.941 3.84 22.4324 4.106 22.087 4.638C21.751 5.17 21.583 5.86067 21.583 6.71C21.583 7.55933 21.751 8.25 22.087 8.782C22.4324 9.314 22.941 9.58 23.613 9.58C24.089 9.58 24.481 9.49133 24.789 9.314C25.097 9.12733 25.3817 8.84267 25.643 8.46L25.923 8.67C25.615 9.19267 25.251 9.57067 24.831 9.804C24.411 10.028 23.9117 10.14 23.333 10.14ZM27.4546 2.44C27.4546 1.964 27.3893 1.614 27.2586 1.39C27.128 1.15667 26.8666 1.04 26.4746 1.04H26.1946V0.76H27.4546C27.8 0.76 28.0566 0.806666 28.2246 0.899999C28.402 0.984 28.528 1.14267 28.6026 1.376C28.6773 1.60933 28.7146 1.964 28.7146 2.44V10H27.4546V2.44ZM31.5312 2.58C31.3166 2.58 31.1299 2.49133 30.9713 2.314C30.8219 2.13667 30.7473 1.92667 30.7473 1.684C30.7473 1.488 30.8033 1.334 30.9153 1.222C31.0366 1.11 31.1953 1.054 31.3913 1.054C31.6059 1.054 31.7879 1.14267 31.9373 1.32C32.0959 1.49733 32.1753 1.70733 32.1753 1.95C32.1753 2.146 32.1146 2.3 31.9933 2.412C31.8813 2.524 31.7273 2.58 31.5312 2.58ZM30.9993 5.1C30.9993 4.624 30.9339 4.274 30.8033 4.05C30.6726 3.81667 30.4113 3.7 30.0193 3.7H29.7392V3.42H30.9993C31.3446 3.42 31.6013 3.46667 31.7693 3.56C31.9466 3.644 32.0726 3.80267 32.1473 4.036C32.2219 4.26933 32.2593 4.624 32.2593 5.1V10H30.9993V5.1ZM36.9366 10.14C36.2646 10.14 35.6952 9.99067 35.2286 9.692C34.7712 9.384 34.4259 8.97333 34.1926 8.46C33.9686 7.93733 33.8566 7.354 33.8566 6.71C33.8566 6.066 33.9686 5.48733 34.1926 4.974C34.4259 4.45133 34.7712 4.04067 35.2286 3.742C35.6952 3.434 36.2646 3.28 36.9366 3.28C37.9632 3.28 38.6399 3.44333 38.9666 3.77C39.1252 3.92867 39.2232 4.12467 39.2606 4.358C39.2979 4.582 39.3166 4.99267 39.3166 5.59H39.0366C38.9992 5.01133 38.8172 4.57733 38.4906 4.288C38.1639 3.98933 37.7392 3.84 37.2166 3.84C36.5446 3.84 36.0359 4.106 35.6906 4.638C35.3546 5.17 35.1866 5.86067 35.1866 6.71C35.1866 7.55933 35.3546 8.25 35.6906 8.782C36.0359 9.314 36.5446 9.58 37.2166 9.58C37.6926 9.58 38.0846 9.49133 38.3926 9.314C38.7006 9.12733 38.9852 8.84267 39.2466 8.46L39.5266 8.67C39.2186 9.19267 38.8546 9.57067 38.4346 9.804C38.0146 10.028 37.5152 10.14 36.9366 10.14ZM45.9721 10.14C45.1788 10.14 44.5021 9.76667 43.9421 9.02L42.2621 6.78V10H41.0021V2.44C41.0021 1.964 40.9368 1.614 40.8061 1.39C40.6755 1.15667 40.4141 1.04 40.0221 1.04H39.7421V0.76H41.0021C41.3475 0.76 41.6041 0.806666 41.7721 0.899999C41.9495 0.984 42.0755 1.14267 42.1501 1.376C42.2248 1.60933 42.2621 1.964 42.2621 2.44V6.57L44.0121 4.33C44.2548 4.03133 44.5115 3.80733 44.7821 3.658C45.0528 3.49933 45.4028 3.42 45.8321 3.42H46.2521V3.77C46.0001 3.77 45.7575 3.82133 45.5241 3.924C45.2908 4.02667 45.0901 4.18533 44.9221 4.4L43.3821 6.36L45.1321 8.6C45.4028 8.95467 45.6548 9.22067 45.8881 9.398C46.1308 9.57533 46.3921 9.68733 46.6721 9.734V10C46.4668 10.0933 46.2335 10.14 45.9721 10.14ZM48.5391 2.58C48.3244 2.58 48.1377 2.49133 47.9791 2.314C47.8297 2.13667 47.7551 1.92667 47.7551 1.684C47.7551 1.488 47.8111 1.334 47.9231 1.222C48.0444 1.11 48.2031 1.054 48.3991 1.054C48.6137 1.054 48.7957 1.14267 48.9451 1.32C49.1037 1.49733 49.1831 1.70733 49.1831 1.95C49.1831 2.146 49.1224 2.3 49.0011 2.412C48.8891 2.524 48.7351 2.58 48.5391 2.58ZM48.0071 5.1C48.0071 4.624 47.9417 4.274 47.8111 4.05C47.6804 3.81667 47.4191 3.7 47.0271 3.7H46.7471V3.42H48.0071C48.3524 3.42 48.6091 3.46667 48.7771 3.56C48.9544 3.644 49.0804 3.80267 49.1551 4.036C49.2297 4.26933 49.2671 4.624 49.2671 5.1V10H48.0071V5.1ZM51.4524 5.1C51.4524 4.624 51.387 4.274 51.2564 4.05C51.1257 3.81667 50.8644 3.7 50.4724 3.7H50.1924V3.42H51.4524C51.7977 3.42 52.059 3.46667 52.2364 3.56C52.423 3.65333 52.5584 3.79333 52.6424 3.98H52.7124C52.9084 3.784 53.1604 3.62067 53.4684 3.49C53.7857 3.35 54.1404 3.28 54.5324 3.28C55.2324 3.28 55.8017 3.46667 56.2404 3.84C56.6884 4.21333 56.9124 4.86667 56.9124 5.8V10H55.6524V5.8C55.6524 5.14667 55.503 4.67067 55.2044 4.372C54.915 4.064 54.551 3.91 54.1124 3.91C53.6177 3.91 53.151 4.15733 52.7124 4.652V10H51.4524V5.1ZM61.2936 12.8C60.3509 12.8 59.5996 12.6273 59.0396 12.282C58.4889 11.9367 58.2136 11.386 58.2136 10.63C58.2136 10.2007 58.3583 9.82733 58.6476 9.51C58.9369 9.19267 59.3056 8.95933 59.7536 8.81C59.3803 8.60467 59.1936 8.32467 59.1936 7.97C59.1936 7.78333 59.2356 7.63867 59.3196 7.536C59.4036 7.43333 59.5249 7.32133 59.6836 7.2C59.3849 7.05067 59.1329 6.81733 58.9276 6.5C58.7316 6.18267 58.6336 5.80933 58.6336 5.38C58.6336 3.98 59.5203 3.28 61.2936 3.28H63.8836V3.63L62.9736 3.77V3.84C63.2629 3.98933 63.4963 4.19933 63.6736 4.47C63.8603 4.73133 63.9536 5.03467 63.9536 5.38C63.9536 6.78 63.0669 7.48 61.2936 7.48C60.3136 7.48 59.8236 7.64333 59.8236 7.97C59.8236 8.29667 60.3136 8.46 61.2936 8.46C62.1989 8.46 62.9363 8.642 63.5056 9.006C64.0843 9.36067 64.3736 9.902 64.3736 10.63C64.3736 11.386 64.0936 11.9367 63.5336 12.282C62.9829 12.6273 62.2363 12.8 61.2936 12.8ZM61.2936 6.99C61.7136 6.99 62.0496 6.864 62.3016 6.612C62.5629 6.35067 62.6936 5.94 62.6936 5.38C62.6936 4.848 62.5629 4.44667 62.3016 4.176C62.0496 3.90533 61.7136 3.77 61.2936 3.77C60.8736 3.77 60.5329 3.90067 60.2716 4.162C60.0196 4.414 59.8936 4.82 59.8936 5.38C59.8936 5.94 60.0196 6.35067 60.2716 6.612C60.5329 6.864 60.8736 6.99 61.2936 6.99ZM61.2936 12.24C61.8536 12.24 62.2969 12.1047 62.6236 11.834C62.9503 11.5727 63.1136 11.1713 63.1136 10.63C63.1136 9.69667 62.5536 9.16 61.4336 9.02L60.6636 8.95C60.2809 9.09933 59.9869 9.30933 59.7816 9.58C59.5763 9.85067 59.4736 10.2007 59.4736 10.63C59.4736 11.1713 59.6369 11.5727 59.9636 11.834C60.2903 12.1047 60.7336 12.24 61.2936 12.24ZM81.0362 4.05C80.7562 4.05 80.5322 3.966 80.3642 3.798C80.2056 3.62067 80.1262 3.378 80.1262 3.07C80.1262 1.922 80.6396 1.05867 81.6662 0.48L81.8062 0.69C81.4329 0.942 81.1529 1.222 80.9662 1.53C80.7796 1.82867 80.6862 2.17867 80.6862 2.58L81.1062 2.44C81.3209 2.44 81.5029 2.51467 81.6522 2.664C81.8016 2.81333 81.8762 2.99533 81.8762 3.21C81.8762 3.45267 81.7969 3.65333 81.6382 3.812C81.4796 3.97067 81.2789 4.05 81.0362 4.05ZM90.6201 10.07C90.1721 10.07 89.7288 9.94867 89.2901 9.706C88.8514 9.454 88.5014 8.96867 88.2401 8.25L87.8901 7.34H83.9701L82.8501 10H82.2201L86.1401 0.76H86.5601L89.6401 8.25C89.8734 8.79133 90.0928 9.16467 90.2981 9.37C90.5034 9.566 90.7974 9.68267 91.1801 9.72V10C91.0121 10.0467 90.8254 10.07 90.6201 10.07ZM87.6101 6.78L85.9301 2.72L84.1801 6.78H87.6101ZM92.0168 5.1C92.0168 4.624 91.9515 4.274 91.8208 4.05C91.6902 3.81667 91.4288 3.7 91.0368 3.7H90.7568V3.42H92.0168C92.3715 3.42 92.6375 3.47133 92.8148 3.574C93.0015 3.66733 93.1322 3.826 93.2068 4.05H93.2768C93.4448 3.83533 93.6828 3.65333 93.9908 3.504C94.2988 3.35467 94.6908 3.28 95.1668 3.28C95.9695 3.28 96.5902 3.60667 97.0288 4.26C97.4675 4.904 97.6868 5.72067 97.6868 6.71C97.6868 7.70867 97.4582 8.53 97.0008 9.174C96.5528 9.818 95.8948 10.14 95.0268 10.14C94.6722 10.14 94.3595 10.1027 94.0888 10.028C93.8182 9.95333 93.5475 9.85067 93.2768 9.72V12.66H92.0168V5.1ZM94.6068 9.58C95.2042 9.58 95.6428 9.31867 95.9228 8.796C96.2122 8.27333 96.3568 7.578 96.3568 6.71C96.3568 5.85133 96.2215 5.16067 95.9508 4.638C95.6802 4.106 95.2788 3.84 94.7468 3.84C94.1215 3.84 93.6315 4.12 93.2768 4.68V9.16C93.5568 9.29067 93.7995 9.39333 94.0048 9.468C94.2102 9.54267 94.4108 9.58 94.6068 9.58ZM99.55 5.1C99.55 4.624 99.4847 4.274 99.354 4.05C99.2234 3.81667 98.962 3.7 98.57 3.7H98.29V3.42H99.55C99.9047 3.42 100.171 3.47133 100.348 3.574C100.535 3.66733 100.665 3.826 100.74 4.05H100.81C100.978 3.83533 101.216 3.65333 101.524 3.504C101.832 3.35467 102.224 3.28 102.7 3.28C103.503 3.28 104.123 3.60667 104.562 4.26C105.001 4.904 105.22 5.72067 105.22 6.71C105.22 7.70867 104.991 8.53 104.534 9.174C104.086 9.818 103.428 10.14 102.56 10.14C102.205 10.14 101.893 10.1027 101.622 10.028C101.351 9.95333 101.081 9.85067 100.81 9.72V12.66H99.55V5.1ZM102.14 9.58C102.737 9.58 103.176 9.31867 103.456 8.796C103.745 8.27333 103.89 7.578 103.89 6.71C103.89 5.85133 103.755 5.16067 103.484 4.638C103.213 4.106 102.812 3.84 102.28 3.84C101.655 3.84 101.165 4.12 100.81 4.68V9.16C101.09 9.29067 101.333 9.39333 101.538 9.468C101.743 9.54267 101.944 9.58 102.14 9.58ZM106.929 2.44C106.929 1.964 106.864 1.614 106.733 1.39C106.603 1.15667 106.341 1.04 105.949 1.04H105.669V0.76H106.929C107.275 0.76 107.531 0.806666 107.699 0.899999C107.877 0.984 108.003 1.14267 108.077 1.376C108.152 1.60933 108.189 1.964 108.189 2.44V10H106.929V2.44ZM110.726 12.38C111.183 12.38 111.557 12.2727 111.846 12.058C112.145 11.8527 112.401 11.47 112.616 10.91L112.896 10.14L110.656 4.68C110.395 4.008 109.881 3.63467 109.116 3.56V3.28H110.306C111.118 3.28 111.678 3.65333 111.986 4.4L113.582 8.278L115.346 3.42H116.046L113.316 10.91C113.045 11.6473 112.747 12.1467 112.42 12.408C112.093 12.6693 111.669 12.8 111.146 12.8H110.726V12.38ZM121.165 5.1C121.165 4.624 121.1 4.274 120.969 4.05C120.839 3.81667 120.577 3.7 120.185 3.7H119.905V3.42H121.165C121.511 3.42 121.772 3.46667 121.949 3.56C122.136 3.65333 122.271 3.79333 122.355 3.98H122.425C122.621 3.784 122.873 3.62067 123.181 3.49C123.499 3.35 123.853 3.28 124.245 3.28C124.945 3.28 125.515 3.46667 125.953 3.84C126.401 4.21333 126.625 4.86667 126.625 5.8V10H125.365V5.8C125.365 5.14667 125.216 4.67067 124.917 4.372C124.628 4.064 124.264 3.91 123.825 3.91C123.331 3.91 122.864 4.15733 122.425 4.652V10H121.165V5.1ZM131.273 10.14C130.638 10.14 130.087 9.99067 129.62 9.692C129.154 9.384 128.799 8.96867 128.557 8.446C128.314 7.92333 128.193 7.34467 128.193 6.71C128.193 6.07533 128.314 5.49667 128.557 4.974C128.799 4.45133 129.154 4.04067 129.62 3.742C130.087 3.434 130.638 3.28 131.273 3.28C131.907 3.28 132.458 3.434 132.925 3.742C133.391 4.04067 133.746 4.45133 133.989 4.974C134.231 5.49667 134.353 6.07533 134.353 6.71C134.353 7.34467 134.231 7.92333 133.989 8.446C133.746 8.96867 133.391 9.384 132.925 9.692C132.458 9.99067 131.907 10.14 131.273 10.14ZM131.273 9.58C131.618 9.58 131.921 9.454 132.183 9.202C132.453 8.95 132.659 8.60467 132.799 8.166C132.948 7.72733 133.023 7.242 133.023 6.71C133.023 6.178 132.948 5.69267 132.799 5.254C132.659 4.81533 132.453 4.47 132.183 4.218C131.921 3.966 131.618 3.84 131.273 3.84C130.927 3.84 130.619 3.966 130.349 4.218C130.087 4.47 129.882 4.81533 129.733 5.254C129.593 5.69267 129.523 6.178 129.523 6.71C129.523 7.242 129.593 7.72733 129.733 8.166C129.882 8.60467 130.087 8.95 130.349 9.202C130.619 9.454 130.927 9.58 131.273 9.58ZM136.209 5.03C135.994 4.50733 135.779 4.14333 135.565 3.938C135.359 3.72333 135.084 3.60667 134.739 3.588V3.308C134.785 3.308 134.855 3.30333 134.949 3.294C135.042 3.28467 135.135 3.28 135.229 3.28C135.733 3.28 136.176 3.41067 136.559 3.672C136.951 3.924 137.277 4.37667 137.539 5.03L138.729 7.97L139.919 4.96C139.695 4.46533 139.48 4.12 139.275 3.924C139.079 3.71867 138.827 3.60667 138.519 3.588V3.308C138.565 3.308 138.635 3.30333 138.729 3.294C138.822 3.28467 138.915 3.28 139.009 3.28C139.513 3.28 139.956 3.41067 140.339 3.672C140.731 3.924 141.057 4.37667 141.319 5.03L142.509 7.97L144.329 3.42H145.029L142.299 10.14H142.019L140.269 5.8L138.519 10.14H138.239L136.209 5.03ZM146.163 3.84C146.536 3.588 146.816 3.31267 147.003 3.014C147.19 2.706 147.283 2.35133 147.283 1.95L146.863 2.09C146.648 2.09 146.466 2.01533 146.317 1.866C146.168 1.71667 146.093 1.53467 146.093 1.32C146.093 1.07733 146.172 0.876666 146.331 0.717999C146.49 0.559333 146.69 0.48 146.933 0.48C147.213 0.48 147.432 0.568667 147.591 0.746C147.759 0.914 147.843 1.152 147.843 1.46C147.843 2.608 147.33 3.47133 146.303 4.05L146.163 3.84ZM158.946 11.96C159.319 11.708 159.599 11.428 159.786 11.12C159.972 10.812 160.066 10.462 160.066 10.07C159.935 10.1633 159.795 10.21 159.646 10.21C159.431 10.21 159.249 10.1353 159.1 9.986C158.95 9.83667 158.876 9.65467 158.876 9.44C158.876 9.19733 158.955 8.99667 159.114 8.838C159.282 8.67933 159.487 8.6 159.73 8.6C159.982 8.6 160.192 8.70267 160.36 8.908C160.537 9.104 160.626 9.34667 160.626 9.636C160.626 10.7653 160.112 11.61 159.086 12.17L158.946 11.96ZM166.384 12.38C166.841 12.38 167.215 12.2727 167.504 12.058C167.803 11.8527 168.059 11.47 168.274 10.91L168.554 10.14L166.314 4.68C166.053 4.008 165.539 3.63467 164.774 3.56V3.28H165.964C166.776 3.28 167.336 3.65333 167.644 4.4L169.24 8.278L171.004 3.42H171.704L168.974 10.91C168.703 11.6473 168.405 12.1467 168.078 12.408C167.751 12.6693 167.327 12.8 166.804 12.8H166.384V12.38ZM175.692 10.14C175.058 10.14 174.507 9.99067 174.04 9.692C173.574 9.384 173.219 8.96867 172.976 8.446C172.734 7.92333 172.612 7.34467 172.612 6.71C172.612 6.07533 172.734 5.49667 172.976 4.974C173.219 4.45133 173.574 4.04067 174.04 3.742C174.507 3.434 175.058 3.28 175.692 3.28C176.327 3.28 176.878 3.434 177.344 3.742C177.811 4.04067 178.166 4.45133 178.408 4.974C178.651 5.49667 178.772 6.07533 178.772 6.71C178.772 7.34467 178.651 7.92333 178.408 8.446C178.166 8.96867 177.811 9.384 177.344 9.692C176.878 9.99067 176.327 10.14 175.692 10.14ZM175.692 9.58C176.038 9.58 176.341 9.454 176.602 9.202C176.873 8.95 177.078 8.60467 177.218 8.166C177.368 7.72733 177.442 7.242 177.442 6.71C177.442 6.178 177.368 5.69267 177.218 5.254C177.078 4.81533 176.873 4.47 176.602 4.218C176.341 3.966 176.038 3.84 175.692 3.84C175.347 3.84 175.039 3.966 174.768 4.218C174.507 4.47 174.302 4.81533 174.152 5.254C174.012 5.69267 173.942 6.178 173.942 6.71C173.942 7.242 174.012 7.72733 174.152 8.166C174.302 8.60467 174.507 8.95 174.768 9.202C175.039 9.454 175.347 9.58 175.692 9.58ZM182.808 10.14C182.108 10.14 181.534 9.95333 181.086 9.58C180.648 9.20667 180.428 8.55333 180.428 7.62V5.1C180.428 4.624 180.363 4.274 180.232 4.05C180.102 3.81667 179.84 3.7 179.448 3.7H179.308V3.42H180.428C180.774 3.42 181.03 3.46667 181.198 3.56C181.376 3.644 181.502 3.80267 181.576 4.036C181.651 4.26933 181.688 4.624 181.688 5.1V7.62C181.688 8.27333 181.833 8.754 182.122 9.062C182.421 9.36067 182.79 9.51 183.228 9.51C183.723 9.51 184.19 9.26267 184.628 8.768V3.42H185.888V10H185.188L184.698 9.44H184.628C184.432 9.636 184.176 9.804 183.858 9.944C183.55 10.0747 183.2 10.14 182.808 10.14ZM192.974 10.14C192.676 10.14 192.372 10.0793 192.064 9.958C191.756 9.82733 191.49 9.61733 191.266 9.328C191.052 9.03867 190.944 8.656 190.944 8.18C190.944 7.47067 191.271 6.96667 191.924 6.668C192.587 6.36933 193.45 6.22 194.514 6.22H194.934C194.934 5.30533 194.808 4.68 194.556 4.344C194.304 4.008 193.94 3.84 193.464 3.84C193.044 3.84 192.708 3.92867 192.456 4.106C192.204 4.28333 192.027 4.59133 191.924 5.03H191.294C191.294 4.71267 191.313 4.46533 191.35 4.288C191.388 4.10133 191.486 3.92867 191.644 3.77C191.812 3.602 192.088 3.48067 192.47 3.406C192.862 3.322 193.287 3.28 193.744 3.28C194.5 3.28 195.098 3.48533 195.536 3.896C195.975 4.29733 196.194 5.072 196.194 6.22V10H195.494L195.004 9.37H194.934C194.766 9.58467 194.519 9.76667 194.192 9.916C193.866 10.0653 193.46 10.14 192.974 10.14ZM193.604 9.51C193.912 9.51 194.169 9.43533 194.374 9.286C194.58 9.13667 194.766 8.93133 194.934 8.67V6.78H194.514C193.824 6.78 193.278 6.91067 192.876 7.172C192.475 7.424 192.274 7.76 192.274 8.18C192.274 8.60933 192.4 8.94067 192.652 9.174C192.914 9.398 193.231 9.51 193.604 9.51ZM200.583 12.8C199.64 12.8 198.889 12.6273 198.329 12.282C197.778 11.9367 197.503 11.386 197.503 10.63C197.503 10.2007 197.647 9.82733 197.937 9.51C198.226 9.19267 198.595 8.95933 199.043 8.81C198.669 8.60467 198.483 8.32467 198.483 7.97C198.483 7.78333 198.525 7.63867 198.609 7.536C198.693 7.43333 198.814 7.32133 198.973 7.2C198.674 7.05067 198.422 6.81733 198.217 6.5C198.021 6.18267 197.923 5.80933 197.923 5.38C197.923 3.98 198.809 3.28 200.583 3.28H203.173V3.63L202.263 3.77V3.84C202.552 3.98933 202.785 4.19933 202.963 4.47C203.149 4.73133 203.243 5.03467 203.243 5.38C203.243 6.78 202.356 7.48 200.583 7.48C199.603 7.48 199.113 7.64333 199.113 7.97C199.113 8.29667 199.603 8.46 200.583 8.46C201.488 8.46 202.225 8.642 202.795 9.006C203.373 9.36067 203.663 9.902 203.663 10.63C203.663 11.386 203.383 11.9367 202.823 12.282C202.272 12.6273 201.525 12.8 200.583 12.8ZM200.583 6.99C201.003 6.99 201.339 6.864 201.591 6.612C201.852 6.35067 201.983 5.94 201.983 5.38C201.983 4.848 201.852 4.44667 201.591 4.176C201.339 3.90533 201.003 3.77 200.583 3.77C200.163 3.77 199.822 3.90067 199.561 4.162C199.309 4.414 199.183 4.82 199.183 5.38C199.183 5.94 199.309 6.35067 199.561 6.612C199.822 6.864 200.163 6.99 200.583 6.99ZM200.583 12.24C201.143 12.24 201.586 12.1047 201.913 11.834C202.239 11.5727 202.403 11.1713 202.403 10.63C202.403 9.69667 201.843 9.16 200.723 9.02L199.953 8.95C199.57 9.09933 199.276 9.30933 199.071 9.58C198.865 9.85067 198.763 10.2007 198.763 10.63C198.763 11.1713 198.926 11.5727 199.253 11.834C199.579 12.1047 200.023 12.24 200.583 12.24ZM205.149 5.1C205.149 4.624 205.084 4.274 204.953 4.05C204.823 3.81667 204.561 3.7 204.169 3.7H204.029V3.42H205.149C205.504 3.42 205.77 3.47133 205.947 3.574C206.134 3.66733 206.265 3.826 206.339 4.05H206.409C206.577 3.83533 206.801 3.65333 207.081 3.504C207.371 3.35467 207.707 3.28 208.089 3.28C208.463 3.28 208.743 3.35 208.929 3.49C209.088 3.61133 209.251 3.82133 209.419 4.12L208.859 4.54C208.757 4.4 208.607 4.29733 208.411 4.232C208.215 4.15733 207.991 4.12 207.739 4.12C207.459 4.12 207.203 4.18533 206.969 4.316C206.736 4.43733 206.549 4.60533 206.409 4.82V10H205.149V5.1ZM213.041 10.14C212.406 10.14 211.869 9.99067 211.431 9.692C210.992 9.384 210.661 8.97333 210.437 8.46C210.213 7.93733 210.101 7.354 210.101 6.71C210.101 6.07533 210.213 5.49667 210.437 4.974C210.661 4.45133 210.983 4.04067 211.403 3.742C211.832 3.434 212.331 3.28 212.901 3.28C213.843 3.28 214.543 3.546 215.001 4.078C215.467 4.60067 215.701 5.36133 215.701 6.36L215.673 6.92H211.431C211.431 7.704 211.599 8.34333 211.935 8.838C212.271 9.33267 212.733 9.58 213.321 9.58C213.759 9.58 214.128 9.48667 214.427 9.3C214.735 9.11333 215.019 8.83333 215.281 8.46L215.561 8.67C215.253 9.18333 214.893 9.55667 214.483 9.79C214.072 10.0233 213.591 10.14 213.041 10.14ZM214.371 6.36C214.371 5.53867 214.249 4.91333 214.007 4.484C213.764 4.05467 213.395 3.84 212.901 3.84C212.621 3.84 212.369 3.952 212.145 4.176C211.921 4.39067 211.743 4.68933 211.613 5.072C211.491 5.45467 211.431 5.884 211.431 6.36H214.371ZM219.877 10.14C219.242 10.14 218.705 9.99067 218.267 9.692C217.828 9.384 217.497 8.97333 217.273 8.46C217.049 7.93733 216.937 7.354 216.937 6.71C216.937 6.07533 217.049 5.49667 217.273 4.974C217.497 4.45133 217.819 4.04067 218.239 3.742C218.668 3.434 219.167 3.28 219.737 3.28C220.679 3.28 221.379 3.546 221.837 4.078C222.303 4.60067 222.537 5.36133 222.537 6.36L222.509 6.92H218.267C218.267 7.704 218.435 8.34333 218.771 8.838C219.107 9.33267 219.569 9.58 220.157 9.58C220.595 9.58 220.964 9.48667 221.263 9.3C221.571 9.11333 221.855 8.83333 222.117 8.46L222.397 8.67C222.089 9.18333 221.729 9.55667 221.319 9.79C220.908 10.0233 220.427 10.14 219.877 10.14ZM221.207 6.36C221.207 5.53867 221.085 4.91333 220.843 4.484C220.6 4.05467 220.231 3.84 219.737 3.84C219.457 3.84 219.205 3.952 218.981 4.176C218.757 4.39067 218.579 4.68933 218.449 5.072C218.327 5.45467 218.267 5.884 218.267 6.36H221.207ZM229.597 10.14C229.074 10.14 228.663 9.99067 228.365 9.692C228.066 9.39333 227.917 8.936 227.917 8.32V3.98H226.937V3.42H227.917V2.16L228.617 1.32H229.177V3.42H230.857V3.98H229.177V8.32C229.177 9.16 229.503 9.58 230.157 9.58C230.381 9.58 230.567 9.55667 230.717 9.51C230.875 9.46333 231.039 9.39333 231.207 9.3L231.347 9.58C231.132 9.73867 230.894 9.874 230.633 9.986C230.371 10.0887 230.026 10.14 229.597 10.14ZM235.083 10.14C234.448 10.14 233.898 9.99067 233.431 9.692C232.964 9.384 232.61 8.96867 232.367 8.446C232.124 7.92333 232.003 7.34467 232.003 6.71C232.003 6.07533 232.124 5.49667 232.367 4.974C232.61 4.45133 232.964 4.04067 233.431 3.742C233.898 3.434 234.448 3.28 235.083 3.28C235.718 3.28 236.268 3.434 236.735 3.742C237.202 4.04067 237.556 4.45133 237.799 4.974C238.042 5.49667 238.163 6.07533 238.163 6.71C238.163 7.34467 238.042 7.92333 237.799 8.446C237.556 8.96867 237.202 9.384 236.735 9.692C236.268 9.99067 235.718 10.14 235.083 10.14ZM235.083 9.58C235.428 9.58 235.732 9.454 235.993 9.202C236.264 8.95 236.469 8.60467 236.609 8.166C236.758 7.72733 236.833 7.242 236.833 6.71C236.833 6.178 236.758 5.69267 236.609 5.254C236.469 4.81533 236.264 4.47 235.993 4.218C235.732 3.966 235.428 3.84 235.083 3.84C234.738 3.84 234.43 3.966 234.159 4.218C233.898 4.47 233.692 4.81533 233.543 5.254C233.403 5.69267 233.333 6.178 233.333 6.71C233.333 7.242 233.403 7.72733 233.543 8.166C233.692 8.60467 233.898 8.95 234.159 9.202C234.43 9.454 234.738 9.58 235.083 9.58ZM246.007 10.14C245.372 10.14 244.822 9.99067 244.355 9.692C243.888 9.384 243.534 8.96867 243.291 8.446C243.048 7.92333 242.927 7.34467 242.927 6.71C242.927 6.07533 243.048 5.49667 243.291 4.974C243.534 4.45133 243.888 4.04067 244.355 3.742C244.822 3.434 245.372 3.28 246.007 3.28C246.642 3.28 247.192 3.434 247.659 3.742C248.126 4.04067 248.48 4.45133 248.723 4.974C248.966 5.49667 249.087 6.07533 249.087 6.71C249.087 7.34467 248.966 7.92333 248.723 8.446C248.48 8.96867 248.126 9.384 247.659 9.692C247.192 9.99067 246.642 10.14 246.007 10.14ZM246.007 9.58C246.352 9.58 246.656 9.454 246.917 9.202C247.188 8.95 247.393 8.60467 247.533 8.166C247.682 7.72733 247.757 7.242 247.757 6.71C247.757 6.178 247.682 5.69267 247.533 5.254C247.393 4.81533 247.188 4.47 246.917 4.218C246.656 3.966 246.352 3.84 246.007 3.84C245.662 3.84 245.354 3.966 245.083 4.218C244.822 4.47 244.616 4.81533 244.467 5.254C244.327 5.69267 244.257 6.178 244.257 6.71C244.257 7.242 244.327 7.72733 244.467 8.166C244.616 8.60467 244.822 8.95 245.083 9.202C245.354 9.454 245.662 9.58 246.007 9.58ZM253.123 10.14C252.423 10.14 251.849 9.95333 251.401 9.58C250.962 9.20667 250.743 8.55333 250.743 7.62V5.1C250.743 4.624 250.677 4.274 250.547 4.05C250.416 3.81667 250.155 3.7 249.763 3.7H249.623V3.42H250.743C251.088 3.42 251.345 3.46667 251.513 3.56C251.69 3.644 251.816 3.80267 251.891 4.036C251.965 4.26933 252.003 4.624 252.003 5.1V7.62C252.003 8.27333 252.147 8.754 252.437 9.062C252.735 9.36067 253.104 9.51 253.543 9.51C254.037 9.51 254.504 9.26267 254.943 8.768V3.42H256.203V10H255.503L255.013 9.44H254.943C254.747 9.636 254.49 9.804 254.173 9.944C253.865 10.0747 253.515 10.14 253.123 10.14ZM258.333 5.1C258.333 4.624 258.268 4.274 258.137 4.05C258.006 3.81667 257.745 3.7 257.353 3.7H257.213V3.42H258.333C258.688 3.42 258.954 3.47133 259.131 3.574C259.318 3.66733 259.448 3.826 259.523 4.05H259.593C259.761 3.83533 259.985 3.65333 260.265 3.504C260.554 3.35467 260.89 3.28 261.273 3.28C261.646 3.28 261.926 3.35 262.113 3.49C262.272 3.61133 262.435 3.82133 262.603 4.12L262.043 4.54C261.94 4.4 261.791 4.29733 261.595 4.232C261.399 4.15733 261.175 4.12 260.923 4.12C260.643 4.12 260.386 4.18533 260.153 4.316C259.92 4.43733 259.733 4.60533 259.593 4.82V10H258.333V5.1Z" fill="#818D9D"/>
<path d="M75.4109 22.32C74.2442 22.32 73.6609 22.8567 73.6609 23.93H73.3809V22.88C73.3809 22.1333 73.7776 21.76 74.5709 21.76H81.0809V22.32H77.9309V31H76.6709V22.32H75.4109ZM83.6159 31.14C82.9812 31.14 82.4446 30.9907 82.0059 30.692C81.5672 30.384 81.2359 29.9733 81.0119 29.46C80.7879 28.9373 80.6759 28.354 80.6759 27.71C80.6759 27.0753 80.7879 26.4967 81.0119 25.974C81.2359 25.4513 81.5579 25.0407 81.9779 24.742C82.4072 24.434 82.9066 24.28 83.4759 24.28C84.4186 24.28 85.1186 24.546 85.5759 25.078C86.0426 25.6007 86.2759 26.3613 86.2759 27.36L86.2479 27.92H82.0059C82.0059 28.704 82.1739 29.3433 82.5099 29.838C82.8459 30.3327 83.3079 30.58 83.8959 30.58C84.3346 30.58 84.7032 30.4867 85.0019 30.3C85.3099 30.1133 85.5946 29.8333 85.8559 29.46L86.1359 29.67C85.8279 30.1833 85.4686 30.5567 85.0579 30.79C84.6472 31.0233 84.1666 31.14 83.6159 31.14ZM84.9459 27.36C84.9459 26.5387 84.8246 25.9133 84.5819 25.484C84.3392 25.0547 83.9706 24.84 83.4759 24.84C83.1959 24.84 82.9439 24.952 82.7199 25.176C82.4959 25.3907 82.3186 25.6893 82.1879 26.072C82.0666 26.4547 82.0059 26.884 82.0059 27.36H84.9459ZM88.0018 26.1C88.0018 25.624 87.9365 25.274 87.8058 25.05C87.6752 24.8167 87.4138 24.7 87.0218 24.7H86.8818V24.42H88.0018C88.3565 24.42 88.6225 24.4713 88.7998 24.574C88.9865 24.6673 89.1172 24.826 89.1918 25.05H89.2618C89.4298 24.8353 89.6538 24.6533 89.9338 24.504C90.2232 24.3547 90.5592 24.28 90.9418 24.28C91.3152 24.28 91.5952 24.35 91.7818 24.49C91.9405 24.6113 92.1038 24.8213 92.2718 25.12L91.7118 25.54C91.6092 25.4 91.4598 25.2973 91.2638 25.232C91.0678 25.1573 90.8438 25.12 90.5918 25.12C90.3118 25.12 90.0552 25.1853 89.8218 25.316C89.5885 25.4373 89.4018 25.6053 89.2618 25.82V31H88.0018V26.1ZM93.6643 26.1C93.6643 25.624 93.599 25.274 93.4683 25.05C93.3376 24.8167 93.0763 24.7 92.6843 24.7H92.4043V24.42H93.6643C94.0096 24.42 94.271 24.4667 94.4483 24.56C94.635 24.6533 94.7703 24.7933 94.8543 24.98H94.9243C95.1203 24.784 95.3723 24.6207 95.6803 24.49C95.9976 24.35 96.3523 24.28 96.7443 24.28C97.1363 24.28 97.4723 24.3547 97.7523 24.504C98.0323 24.644 98.2563 24.896 98.4243 25.26C98.667 24.952 98.975 24.714 99.3483 24.546C99.731 24.3687 100.123 24.28 100.524 24.28C101.122 24.28 101.598 24.4667 101.952 24.84C102.307 25.2133 102.484 25.8667 102.484 26.8V31H101.224V26.8C101.224 26.128 101.131 25.6473 100.944 25.358C100.758 25.0593 100.478 24.91 100.104 24.91C99.843 24.91 99.5676 25.008 99.2783 25.204C98.989 25.3907 98.7743 25.596 98.6343 25.82C98.681 25.96 98.7043 26.2867 98.7043 26.8V31H97.4443V26.8C97.4443 26.128 97.351 25.6473 97.1643 25.358C96.9776 25.0593 96.6976 24.91 96.3243 24.91C95.8296 24.91 95.363 25.1573 94.9243 25.652V31H93.6643V26.1ZM106.644 31.14C105.571 31.14 104.848 30.9533 104.474 30.58C104.316 30.4213 104.218 30.244 104.18 30.048C104.143 29.8427 104.124 29.53 104.124 29.11H104.404C104.488 29.5767 104.689 29.9407 105.006 30.202C105.333 30.454 105.786 30.58 106.364 30.58C106.878 30.58 107.26 30.4913 107.512 30.314C107.774 30.1367 107.904 29.8987 107.904 29.6C107.904 29.3293 107.802 29.096 107.596 28.9C107.4 28.704 107.083 28.5173 106.644 28.34L105.804 27.99C105.244 27.766 104.824 27.5047 104.544 27.206C104.264 26.9073 104.124 26.5387 104.124 26.1C104.124 25.5307 104.339 25.0873 104.768 24.77C105.198 24.4433 105.753 24.28 106.434 24.28C107.461 24.28 108.161 24.4667 108.534 24.84C108.693 24.9987 108.791 25.176 108.828 25.372C108.866 25.568 108.884 25.8807 108.884 26.31H108.604C108.53 25.8433 108.334 25.484 108.016 25.232C107.699 24.9707 107.265 24.84 106.714 24.84C106.276 24.84 105.93 24.9333 105.678 25.12C105.436 25.2973 105.314 25.5307 105.314 25.82C105.314 26.3053 105.688 26.702 106.434 27.01L107.274 27.36C107.909 27.6213 108.371 27.9013 108.66 28.2C108.95 28.4893 109.094 28.8627 109.094 29.32C109.094 29.8893 108.866 30.3373 108.408 30.664C107.951 30.9813 107.363 31.14 106.644 31.14ZM116.715 31.28C115.772 31.28 115.044 31.0747 114.531 30.664C114.027 30.244 113.775 29.7027 113.775 29.04C113.775 28.676 113.863 28.3493 114.041 28.06C114.218 27.7613 114.428 27.5047 114.671 27.29C114.923 27.0753 115.291 26.7907 115.777 26.436C115.469 26.156 115.226 25.8947 115.049 25.652C114.834 25.3813 114.661 25.078 114.531 24.742C114.4 24.3967 114.335 24.0373 114.335 23.664C114.335 22.992 114.559 22.46 115.007 22.068C115.464 21.676 116.08 21.48 116.855 21.48C117.573 21.48 118.138 21.662 118.549 22.026C118.959 22.39 119.165 22.8613 119.165 23.44C119.165 23.8507 119.076 24.2193 118.899 24.546C118.721 24.8633 118.493 25.148 118.213 25.4C117.933 25.652 117.569 25.932 117.121 26.24L119.935 29.32C120.271 28.956 120.579 28.5593 120.859 28.13C120.999 27.906 121.111 27.7193 121.195 27.57L121.475 27.78C121.372 27.9947 121.269 28.1907 121.167 28.368C120.887 28.844 120.574 29.2687 120.229 29.642L121.475 31H119.935L119.375 30.398C118.591 30.986 117.704 31.28 116.715 31.28ZM116.687 25.75C117.107 25.3953 117.424 25.0547 117.639 24.728C117.863 24.392 117.975 24.0093 117.975 23.58C117.975 23.0387 117.858 22.6373 117.625 22.376C117.401 22.1053 117.144 21.97 116.855 21.97C116.528 21.97 116.248 22.1053 116.015 22.376C115.781 22.6467 115.665 23.076 115.665 23.664C115.665 23.9907 115.735 24.308 115.875 24.616C116.015 24.9147 116.169 25.1667 116.337 25.372C116.505 25.5773 116.621 25.7033 116.687 25.75ZM116.981 30.79C117.765 30.79 118.465 30.552 119.081 30.076L116.197 26.926C115.842 27.234 115.571 27.542 115.385 27.85C115.198 28.158 115.105 28.508 115.105 28.9C115.105 30.16 115.73 30.79 116.981 30.79ZM130.269 31.28C129.401 31.28 128.636 31.07 127.973 30.65C127.32 30.23 126.816 29.6607 126.461 28.942C126.107 28.214 125.929 27.4067 125.929 26.52C125.929 25.6053 126.121 24.7607 126.503 23.986C126.895 23.2113 127.423 22.6 128.085 22.152C128.757 21.704 129.485 21.48 130.269 21.48C131.016 21.48 131.669 21.5873 132.229 21.802C132.799 22.0073 133.219 22.2733 133.489 22.6C133.648 22.796 133.746 23.0573 133.783 23.384C133.821 23.7013 133.839 24.14 133.839 24.7H133.559C133.382 23.7947 133.055 23.1273 132.579 22.698C132.103 22.2593 131.473 22.04 130.689 22.04C129.681 22.04 128.869 22.3947 128.253 23.104C127.637 23.8133 127.329 24.952 127.329 26.52C127.329 27.2573 127.446 27.9433 127.679 28.578C127.922 29.2127 128.295 29.7307 128.799 30.132C129.303 30.524 129.933 30.72 130.689 30.72C131.371 30.72 131.963 30.5567 132.467 30.23C132.981 29.9033 133.438 29.4133 133.839 28.76L134.119 28.97C133.69 29.81 133.158 30.4073 132.523 30.762C131.898 31.1073 131.147 31.28 130.269 31.28ZM138.334 31.14C137.699 31.14 137.149 30.9907 136.682 30.692C136.215 30.384 135.861 29.9687 135.618 29.446C135.375 28.9233 135.254 28.3447 135.254 27.71C135.254 27.0753 135.375 26.4967 135.618 25.974C135.861 25.4513 136.215 25.0407 136.682 24.742C137.149 24.434 137.699 24.28 138.334 24.28C138.969 24.28 139.519 24.434 139.986 24.742C140.453 25.0407 140.807 25.4513 141.05 25.974C141.293 26.4967 141.414 27.0753 141.414 27.71C141.414 28.3447 141.293 28.9233 141.05 29.446C140.807 29.9687 140.453 30.384 139.986 30.692C139.519 30.9907 138.969 31.14 138.334 31.14ZM138.334 30.58C138.679 30.58 138.983 30.454 139.244 30.202C139.515 29.95 139.72 29.6047 139.86 29.166C140.009 28.7273 140.084 28.242 140.084 27.71C140.084 27.178 140.009 26.6927 139.86 26.254C139.72 25.8153 139.515 25.47 139.244 25.218C138.983 24.966 138.679 24.84 138.334 24.84C137.989 24.84 137.681 24.966 137.41 25.218C137.149 25.47 136.943 25.8153 136.794 26.254C136.654 26.6927 136.584 27.178 136.584 27.71C136.584 28.242 136.654 28.7273 136.794 29.166C136.943 29.6047 137.149 29.95 137.41 30.202C137.681 30.454 137.989 30.58 138.334 30.58ZM143.266 26.1C143.266 25.624 143.201 25.274 143.07 25.05C142.939 24.8167 142.678 24.7 142.286 24.7H142.006V24.42H143.266C143.611 24.42 143.873 24.4667 144.05 24.56C144.237 24.6533 144.372 24.7933 144.456 24.98H144.526C144.722 24.784 144.974 24.6207 145.282 24.49C145.599 24.35 145.954 24.28 146.346 24.28C147.046 24.28 147.615 24.4667 148.054 24.84C148.502 25.2133 148.726 25.8667 148.726 26.8V31H147.466V26.8C147.466 26.1467 147.317 25.6707 147.018 25.372C146.729 25.064 146.365 24.91 145.926 24.91C145.431 24.91 144.965 25.1573 144.526 25.652V31H143.266V26.1ZM152.841 31.14C152.029 31.14 151.404 30.818 150.965 30.174C150.536 29.53 150.321 28.7087 150.321 27.71C150.321 26.7113 150.545 25.89 150.993 25.246C151.45 24.602 152.113 24.28 152.981 24.28C153.336 24.28 153.648 24.3173 153.919 24.392C154.19 24.4667 154.46 24.5693 154.731 24.7V23.44C154.731 22.964 154.666 22.614 154.535 22.39C154.404 22.1567 154.143 22.04 153.751 22.04H153.471V21.76H154.731C155.076 21.76 155.333 21.8067 155.501 21.9C155.678 21.984 155.804 22.1427 155.879 22.376C155.954 22.6093 155.991 22.964 155.991 23.44V31H155.291L154.801 30.37H154.731C154.526 30.6033 154.283 30.79 154.003 30.93C153.732 31.07 153.345 31.14 152.841 31.14ZM153.261 30.58C153.644 30.58 153.933 30.51 154.129 30.37C154.325 30.23 154.526 30.02 154.731 29.74V25.26C154.451 25.1293 154.208 25.0267 154.003 24.952C153.798 24.8773 153.597 24.84 153.401 24.84C152.804 24.84 152.36 25.1013 152.071 25.624C151.791 26.1467 151.651 26.842 151.651 27.71C151.651 28.5687 151.786 29.264 152.057 29.796C152.328 30.3187 152.729 30.58 153.261 30.58ZM158.755 23.58C158.54 23.58 158.354 23.4913 158.195 23.314C158.046 23.1367 157.971 22.9267 157.971 22.684C157.971 22.488 158.027 22.334 158.139 22.222C158.26 22.11 158.419 22.054 158.615 22.054C158.83 22.054 159.012 22.1427 159.161 22.32C159.32 22.4973 159.399 22.7073 159.399 22.95C159.399 23.146 159.338 23.3 159.217 23.412C159.105 23.524 158.951 23.58 158.755 23.58ZM158.223 26.1C158.223 25.624 158.158 25.274 158.027 25.05C157.896 24.8167 157.635 24.7 157.243 24.7H156.963V24.42H158.223C158.568 24.42 158.825 24.4667 158.993 24.56C159.17 24.644 159.296 24.8027 159.371 25.036C159.446 25.2693 159.483 25.624 159.483 26.1V31H158.223V26.1ZM163.404 31.14C162.882 31.14 162.471 30.9907 162.172 30.692C161.874 30.3933 161.724 29.936 161.724 29.32V24.98H160.744V24.42H161.724V23.16L162.424 22.32H162.984V24.42H164.664V24.98H162.984V29.32C162.984 30.16 163.311 30.58 163.964 30.58C164.188 30.58 164.375 30.5567 164.524 30.51C164.683 30.4633 164.846 30.3933 165.014 30.3L165.154 30.58C164.94 30.7387 164.702 30.874 164.44 30.986C164.179 31.0887 163.834 31.14 163.404 31.14ZM166.931 23.58C166.716 23.58 166.529 23.4913 166.371 23.314C166.221 23.1367 166.147 22.9267 166.147 22.684C166.147 22.488 166.203 22.334 166.315 22.222C166.436 22.11 166.595 22.054 166.791 22.054C167.005 22.054 167.187 22.1427 167.337 22.32C167.495 22.4973 167.575 22.7073 167.575 22.95C167.575 23.146 167.514 23.3 167.393 23.412C167.281 23.524 167.127 23.58 166.931 23.58ZM166.399 26.1C166.399 25.624 166.333 25.274 166.203 25.05C166.072 24.8167 165.811 24.7 165.419 24.7H165.139V24.42H166.399C166.744 24.42 167.001 24.4667 167.169 24.56C167.346 24.644 167.472 24.8027 167.547 25.036C167.621 25.2693 167.659 25.624 167.659 26.1V31H166.399V26.1ZM172.336 31.14C171.701 31.14 171.151 30.9907 170.684 30.692C170.217 30.384 169.863 29.9687 169.62 29.446C169.377 28.9233 169.256 28.3447 169.256 27.71C169.256 27.0753 169.377 26.4967 169.62 25.974C169.863 25.4513 170.217 25.0407 170.684 24.742C171.151 24.434 171.701 24.28 172.336 24.28C172.971 24.28 173.521 24.434 173.988 24.742C174.455 25.0407 174.809 25.4513 175.052 25.974C175.295 26.4967 175.416 27.0753 175.416 27.71C175.416 28.3447 175.295 28.9233 175.052 29.446C174.809 29.9687 174.455 30.384 173.988 30.692C173.521 30.9907 172.971 31.14 172.336 31.14ZM172.336 30.58C172.681 30.58 172.985 30.454 173.246 30.202C173.517 29.95 173.722 29.6047 173.862 29.166C174.011 28.7273 174.086 28.242 174.086 27.71C174.086 27.178 174.011 26.6927 173.862 26.254C173.722 25.8153 173.517 25.47 173.246 25.218C172.985 24.966 172.681 24.84 172.336 24.84C171.991 24.84 171.683 24.966 171.412 25.218C171.151 25.47 170.945 25.8153 170.796 26.254C170.656 26.6927 170.586 27.178 170.586 27.71C170.586 28.242 170.656 28.7273 170.796 29.166C170.945 29.6047 171.151 29.95 171.412 30.202C171.683 30.454 171.991 30.58 172.336 30.58ZM177.268 26.1C177.268 25.624 177.202 25.274 177.072 25.05C176.941 24.8167 176.68 24.7 176.288 24.7H176.008V24.42H177.268C177.613 24.42 177.874 24.4667 178.052 24.56C178.238 24.6533 178.374 24.7933 178.458 24.98H178.528C178.724 24.784 178.976 24.6207 179.284 24.49C179.601 24.35 179.956 24.28 180.348 24.28C181.048 24.28 181.617 24.4667 182.056 24.84C182.504 25.2133 182.728 25.8667 182.728 26.8V31H181.468V26.8C181.468 26.1467 181.318 25.6707 181.02 25.372C180.73 25.064 180.366 24.91 179.928 24.91C179.433 24.91 178.966 25.1573 178.528 25.652V31H177.268V26.1ZM186.871 31.14C185.798 31.14 185.074 30.9533 184.701 30.58C184.542 30.4213 184.444 30.244 184.407 30.048C184.37 29.8427 184.351 29.53 184.351 29.11H184.631C184.715 29.5767 184.916 29.9407 185.233 30.202C185.56 30.454 186.012 30.58 186.591 30.58C187.104 30.58 187.487 30.4913 187.739 30.314C188 30.1367 188.131 29.8987 188.131 29.6C188.131 29.3293 188.028 29.096 187.823 28.9C187.627 28.704 187.31 28.5173 186.871 28.34L186.031 27.99C185.471 27.766 185.051 27.5047 184.771 27.206C184.491 26.9073 184.351 26.5387 184.351 26.1C184.351 25.5307 184.566 25.0873 184.995 24.77C185.424 24.4433 185.98 24.28 186.661 24.28C187.688 24.28 188.388 24.4667 188.761 24.84C188.92 24.9987 189.018 25.176 189.055 25.372C189.092 25.568 189.111 25.8807 189.111 26.31H188.831C188.756 25.8433 188.56 25.484 188.243 25.232C187.926 24.9707 187.492 24.84 186.941 24.84C186.502 24.84 186.157 24.9333 185.905 25.12C185.662 25.2973 185.541 25.5307 185.541 25.82C185.541 26.3053 185.914 26.702 186.661 27.01L187.501 27.36C188.136 27.6213 188.598 27.9013 188.887 28.2C189.176 28.4893 189.321 28.8627 189.321 29.32C189.321 29.8893 189.092 30.3373 188.635 30.664C188.178 30.9813 187.59 31.14 186.871 31.14Z" fill="#2F80ED"/>
</svg>
